# xmcd
#
# Track frame offsets:
#	150
#	25365
#	48851
#	71715
#	93438
#	122018
#	148310
#	168811
#	189386
#	215601
#	235169
#	250000
#	274613
#	302049
#
# Disc length: 4403 seconds
#
# Revision: 1
# Processed by: cddbd v1.5.1PL2 Copyright (c) Steve Scherf et al.
# Submitted via: audiograbber 1.83.01
#
DISCID=c411310e
DTITLE=Various Artist - OM - Summer Sessions - Disc2
DYEAR=1900
DGENRE=House
TTITLE0=Roomsa - Just For Me
TTITLE1=Colette - DMTTYO (Chuck Love's Mute Force Mix)
TTITLE2=Damon Trueeitt - Run It By Me (Joey Youngman Remix)
TTITLE3=Bryan Jones - Chicago Jack
TTITLE4=Micky More - Victory Dance
TTITLE5=Andy Caldwell Feat. Xavior and Omega - Rumors Forever (Chuck Love Remix)
TTITLE6=Chuck Love - Hidden Message
TTITLE7=Mustafa vs Chuck Love - Sao Salvador (Olivier Desmet Remix) vs Somethin
TTITLE7=g Right (Acapella)
TTITLE8=Chuck Love With Fourfeet - Beautiful Thang
TTITLE9=Alexander East - Been So Long (Atnarko and Moss Remix)
TTITLE10=Chuck Love - Livin' At Night (Jimpster Remix)
TTITLE11=Chuck Love - Get me High
TTITLE12=Audiowhores Feat. Pete Simpson - Not Going Back (Dub)
TTITLE13=Fourfeet With Dallas - Sunday Morning
EXTD=
EXTT0=
EXTT1=
EXTT2=
EXTT3=
EXTT4=
EXTT5=
EXTT6=
EXTT7=
EXTT8=
EXTT9=
EXTT10=
EXTT11=
EXTT12=
EXTT13=
PLAYORDER=
